<svg width="73" height="73" viewBox="0 0 73 73" fill="none" xmlns="http://www.w3.org/2000/svg">
<path opacity="0.5" fill-rule="evenodd" clip-rule="evenodd" d="M64.107 12.9025L64.7769 7.7225L59.5974 8.3925C46.2285 -2.7975 26.7702 -2.7975 13.4014 8.3925L8.22183 7.7225L8.89177 12.9025C-2.29726 26.2725 -2.29726 45.7325 8.89177 59.1025L8.22183 64.2825L13.4014 63.6125C26.7702 74.8025 46.2385 74.8025 59.6074 63.6125L64.7869 64.2825L64.117 59.1025C75.296 45.7325 75.296 26.2725 64.107 12.9025ZM12.8314 12.3325C-0.237436 25.4025 -0.237436 46.6025 12.8314 59.6825C25.9003 72.7525 47.0985 72.7525 60.1773 59.6825C73.2462 46.6125 73.2462 25.4125 60.1773 12.3325C47.0985 -0.7475 25.9003 -0.7475 12.8314 12.3325C12.8314 12.3225 12.8314 12.3225 12.8314 12.3325Z" fill="url(#paint0_linear_1639_1333)"/>
<path d="M36.5025 67.0024C53.6233 67.0024 67.5025 53.1233 67.5025 36.0024C67.5025 18.8816 53.6233 5.00244 36.5025 5.00244C19.3817 5.00244 5.5025 18.8816 5.5025 36.0024C5.5025 53.1233 19.3817 67.0024 36.5025 67.0024Z" fill="url(#paint1_linear_1639_1333)"/>
<path fill-rule="evenodd" clip-rule="evenodd" d="M19.6925 35.5025H23.3225C23.5525 35.5025 23.7325 35.6825 23.7325 35.9125V38.8625C23.7325 39.0925 23.5525 39.2725 23.3225 39.2725H19.6925C19.4625 39.2725 19.2825 39.0925 19.2825 38.8625V35.9125C19.2825 35.6825 19.4625 35.5025 19.6925 35.5025ZM19.6925 41.1025H23.3225C23.5525 41.1025 23.7325 41.2825 23.7325 41.5125V42.5825C23.7325 42.8125 23.5425 42.9925 23.3225 42.9925H19.6925C19.4625 42.9925 19.2825 42.8125 19.2825 42.5825V41.5025C19.2825 41.2825 19.4625 41.1025 19.6925 41.1025ZM21.1525 22.1625L16.5925 27.5025C16.4725 27.6425 16.4925 27.8525 16.6325 27.9725C16.6925 28.0225 16.7725 28.0525 16.8525 28.0525H19.2725V33.2425C19.2725 33.4725 19.4525 33.6525 19.6825 33.6525H23.3125C23.5425 33.6525 23.7225 33.4725 23.7225 33.2425V28.0525H26.1425C26.3325 28.0525 26.4825 27.9025 26.4825 27.7125C26.4825 27.6325 26.4525 27.5625 26.4025 27.4925L21.8425 22.1525C21.6725 21.9525 21.3725 21.9325 21.1825 22.1025C21.1825 22.1325 21.1725 22.1425 21.1525 22.1625ZM49.6925 35.5025H53.3225C53.5525 35.5025 53.7325 35.6825 53.7325 35.9125V38.8625C53.7325 39.0925 53.5525 39.2725 53.3225 39.2725H49.6925C49.4625 39.2725 49.2825 39.0925 49.2825 38.8625V35.9125C49.2825 35.6825 49.4625 35.5025 49.6925 35.5025ZM49.6925 41.1025H53.3225C53.5525 41.1025 53.7325 41.2825 53.7325 41.5125V42.5825C53.7325 42.8125 53.5425 42.9925 53.3225 42.9925H49.6925C49.4625 42.9925 49.2825 42.8125 49.2825 42.5825V41.5025C49.2825 41.2825 49.4625 41.1025 49.6925 41.1025ZM51.1525 22.1625L46.5925 27.5025C46.4725 27.6425 46.4925 27.8525 46.6325 27.9725C46.6925 28.0225 46.7725 28.0525 46.8525 28.0525H49.2725V33.2425C49.2725 33.4725 49.4525 33.6525 49.6825 33.6525H53.3125C53.5425 33.6525 53.7225 33.4725 53.7225 33.2425V28.0525H56.1425C56.3325 28.0525 56.4825 27.9025 56.4825 27.7125C56.4825 27.6325 56.4525 27.5625 56.4025 27.4925L51.8425 22.1525C51.6725 21.9525 51.3725 21.9325 51.1825 22.1025C51.1825 22.1325 51.1725 22.1425 51.1525 22.1625ZM38.1425 11.5825C38.2725 11.7125 38.3425 11.8925 38.3425 12.0825L39.5025 47.7525C39.5025 47.7725 39.5025 47.8025 39.4925 47.8225C39.4625 47.9925 39.2925 48.1025 39.1325 48.0625C38.2925 47.9125 37.4825 47.6125 36.7425 47.1825L36.7225 47.1725C36.5625 47.0625 36.4625 46.8825 36.4625 46.6825L36.0125 17.1025L35.5525 46.6925C35.5525 46.8925 35.4525 47.0725 35.2925 47.1825L35.2725 47.1925C34.5325 47.6225 33.7225 47.9225 32.8825 48.0725C32.8625 48.0825 32.8425 48.0825 32.8125 48.0825C32.6425 48.0825 32.5025 47.9425 32.5025 47.7625L33.6725 12.2225C33.6725 12.0325 33.7425 11.8525 33.8725 11.7225L35.7325 9.09246C35.7725 9.05246 35.8325 9.02246 35.8925 9.02246C35.9325 9.02246 35.9725 9.03246 36.0025 9.05246C36.0925 9.00246 36.2025 9.02246 36.2725 9.09246L38.1425 11.5825ZM36.2425 47.9725C36.8225 48.3625 38.5825 49.2525 42.9025 49.5025C43.6125 49.5225 44.3125 49.3825 44.9525 49.0925C45.1325 48.6625 44.1325 48.0725 44.9725 48.0725H45.0325C45.8925 48.1225 46.5525 48.8525 46.5025 49.7025C46.4725 50.5425 45.7825 51.2125 44.9325 51.2225H43.6025H43.6125H38.3225C37.8325 51.2325 37.4325 51.6125 37.4025 52.1025L36.8225 59.7025C36.9925 60.2125 37.3425 60.6525 37.8025 60.9425C37.9625 61.1025 37.9625 61.3625 37.8025 61.5325L36.2725 62.8825C36.1225 63.0425 35.8825 63.0425 35.7225 62.9025C35.7125 62.8925 35.7125 62.8925 35.7025 62.8825L34.1725 61.5325C34.0125 61.3725 34.0125 61.1125 34.1725 60.9525C34.6425 60.6725 34.9925 60.2425 35.1625 59.7225L34.6025 52.1025C34.5725 51.6125 34.1725 51.2325 33.6825 51.2325H28.3925H28.4025H27.0825C26.2425 51.2325 25.5425 50.5625 25.5125 49.7125C25.5125 49.6925 25.5125 49.6725 25.5125 49.6525C25.5025 48.7925 26.1825 48.0925 27.0425 48.0725C27.8725 48.0725 26.8825 48.6625 27.0625 49.0925C27.7125 49.3825 28.4125 49.5125 29.1125 49.5025C33.4225 49.2525 35.1925 48.3525 35.7725 47.9725C35.9125 47.8725 36.1025 47.8725 36.2425 47.9725Z" fill="white"/>
<defs>
<linearGradient id="paint0_linear_1639_1333" x1="36.5" y1="0" x2="36.5" y2="72.005" gradientUnits="userSpaceOnUse">
<stop stop-color="#64762B"/>
<stop offset="1" stop-color="#9DB954"/>
</linearGradient>
<linearGradient id="paint1_linear_1639_1333" x1="36.5025" y1="5.00244" x2="36.5025" y2="67.0024" gradientUnits="userSpaceOnUse">
<stop stop-color="#64762B"/>
<stop offset="1" stop-color="#9DB954"/>
</linearGradient>
</defs>
</svg>
