<?xml version="1.0" encoding="utf-8"?>
<!-- Generator: Adobe Illustrator 23.1.0, SVG Export Plug-In . SVG Version: 6.00 Build 0)  -->
<svg version="1.1" id="Слой_1" xmlns="http://www.w3.org/2000/svg" xmlns:xlink="http://www.w3.org/1999/xlink" x="0px" y="0px"
	 viewBox="0 0 73 72" style="enable-background:new 0 0 73 72;" xml:space="preserve">
<style type="text/css">
	.st0{opacity:0.5;fill-rule:evenodd;clip-rule:evenodd;fill:url(#SVGID_1_);enable-background:new    ;}
</style>
<linearGradient id="SVGID_1_" gradientUnits="userSpaceOnUse" x1="36.5" y1="658" x2="36.5" y2="730" gradientTransform="matrix(1 0 0 1 0 -658)">
	<stop  offset="0" style="stop-color:#6A5231"/>
	<stop  offset="1" style="stop-color:#DECA9B"/>
</linearGradient>
<path class="st0" d="M64.1,12.9l0.7-5.2l-5.2,0.7C46.2-2.8,26.8-2.8,13.4,8.4L8.2,7.7l0.7,5.2c-11.2,13.4-11.2,32.8,0,46.2l-0.7,5.2
	l5.2-0.7c13.4,11.2,32.8,11.2,46.2,0l5.2,0.7l-0.7-5.2C75.3,45.7,75.3,26.3,64.1,12.9z M12.8,12.3c-13.1,13.1-13.1,34.3,0,47.3
	c13.1,13.1,34.3,13.1,47.3,0s13.1-34.3,0-47.3C47.1-0.7,25.9-0.7,12.8,12.3L12.8,12.3z"/>
</svg>
