<?xml version="1.0" encoding="utf-8"?>
<!-- Generator: Adobe Illustrator 23.1.0, SVG Export Plug-In . SVG Version: 6.00 Build 0)  -->
<svg version="1.1" id="Слой_1" xmlns="http://www.w3.org/2000/svg" xmlns:xlink="http://www.w3.org/1999/xlink" x="0px" y="0px"
	 viewBox="0 0 73 72" style="enable-background:new 0 0 73 72;" xml:space="preserve">
<style type="text/css">
	.st0{fill:url(#SVGID_1_);}
	.st1{fill:#FFFFFF;stroke:url(#SVGID_2_);stroke-width:0.25;stroke-miterlimit:10;}
	.st2{fill:#FFFFFF;stroke:url(#SVGID_3_);stroke-width:0.25;stroke-miterlimit:10;}
</style>
<linearGradient id="SVGID_1_" gradientUnits="userSpaceOnUse" x1="36.5" y1="663" x2="36.5" y2="725" gradientTransform="matrix(1 0 0 1 0 -658)">
	<stop  offset="0" style="stop-color:#6A5231"/>
	<stop  offset="1" style="stop-color:#DECA9B"/>
</linearGradient>
<path class="st0" d="M36.5,67c17.1,0,31-13.9,31-31S53.6,5,36.5,5s-31,13.9-31,31S19.4,67,36.5,67z"/>
<linearGradient id="SVGID_2_" gradientUnits="userSpaceOnUse" x1="48.9012" y1="58.7174" x2="48.9012" y2="29.7438" gradientTransform="matrix(1 0 0 -1 0 74)">
	<stop  offset="0" style="stop-color:#6A5231"/>
	<stop  offset="1" style="stop-color:#DECA9B"/>
</linearGradient>
<path class="st1" d="M38.1,25.8c-0.2-3,1.3-6.6,4.8-8.8c3.3-2.1,7.1-1.6,7.8-1.5c0.9,0.1,4.4,0.8,6.7,3.6c2.1,2.5,2.2,5.6,2.2,6.9
	l0,0c-0.3,3.4-0.6,6.8-0.9,10.3c0.8,1,1.7,1.9,2.5,2.9c-2.1,1.6-4.2,3.3-6.3,4.9h-3.6v-9l5-2.4c0.3-1.4,0.7-2.8,1-4.2
	c-2.4,0.4-4.9,0.7-7.3,1.1c0,1.9,0,3.8,0,5.7c-0.8,0-1.6,0-2.4,0c0-1.9-0.1-3.9-0.1-5.8c-2.4-0.4-4.8-0.7-7.2-1.1
	c0.4,1.5,0.8,2.9,1.2,4.4c1.6,0.8,3.2,1.5,4.8,2.3l0.2,9h-3.7c-2.1-1.7-4.1-3.3-6.2-5c0.8-1,1.6-2,2.5-3
	C38.7,32.7,38.4,29.3,38.1,25.8z"/>
<linearGradient id="SVGID_3_" gradientUnits="userSpaceOnUse" x1="26.7012" y1="46.7174" x2="26.7012" y2="17.7438" gradientTransform="matrix(1 0 0 -1 0 74)">
	<stop  offset="0" style="stop-color:#6A5231"/>
	<stop  offset="1" style="stop-color:#DECA9B"/>
</linearGradient>
<path class="st2" d="M15.9,37.8c-0.2-3,1.3-6.6,4.8-8.8c3.3-2.1,7.1-1.6,7.8-1.5c0.9,0.1,4.4,0.8,6.7,3.6c2.1,2.5,2.2,5.6,2.2,6.9
	l0,0c-0.3,3.4-0.6,6.8-0.9,10.3c0.8,1,1.7,1.9,2.5,2.9c-2.1,1.6-4.2,3.3-6.3,4.9h-3.6v-9l5-2.4c0.3-1.4,0.7-2.8,1-4.2
	c-2.4,0.4-4.9,0.7-7.3,1.1c0,1.9,0,3.8,0,5.7c-0.8,0-1.6,0-2.4,0c0-1.9-0.1-3.9-0.1-5.8c-2.4-0.4-4.8-0.7-7.2-1.1
	c0.4,1.5,0.8,2.9,1.2,4.4c1.6,0.8,3.2,1.5,4.8,2.3l0.2,9h-3.7c-2.1-1.7-4.1-3.3-6.2-5c0.8-1,1.6-2,2.5-3
	C16.5,44.7,16.2,41.3,15.9,37.8z"/>
</svg>
