<svg xmlns="http://www.w3.org/2000/svg" width="73" height="72" viewBox="0 0 73 72" fill="none">
<path opacity="0.5" fill-rule="evenodd" clip-rule="evenodd" d="M64.11 12.8925L64.78 7.7125L59.6 8.3925C46.23 -2.7975 26.77 -2.7975 13.4 8.3925L8.22 7.7125L8.89 12.8925C-2.3 26.2725 -2.3 45.7325 8.89 59.1025L8.22 64.2825L13.4 63.6125C26.77 74.7925 46.23 74.7925 59.6 63.6125L64.78 64.2825L64.11 59.1025C75.3 45.7325 75.3 26.2725 64.11 12.8925ZM12.83 12.3225C-0.239999 25.3925 -0.249999 46.5925 12.83 59.6625C25.9 72.7325 47.1 72.7425 60.17 59.6625C73.24 46.5825 73.25 25.3925 60.17 12.3225C47.1 -0.7475 25.91 -0.7475 12.83 12.3225C12.84 12.3225 12.83 12.3225 12.83 12.3225Z" fill="url(#paint0_linear_1639_1339)"/>
<path d="M36.5 66.9924C53.6208 66.9924 67.5 53.1133 67.5 35.9924C67.5 18.8716 53.6208 4.99243 36.5 4.99243C19.3792 4.99243 5.5 18.8716 5.5 35.9924C5.5 53.1133 19.3792 66.9924 36.5 66.9924Z" fill="url(#paint1_linear_1639_1339)"/>
<path fill-rule="evenodd" clip-rule="evenodd" d="M53.55 51.6424C53.55 51.4624 53.47 51.2924 53.34 51.1624L29.65 26.1924C29.63 26.1824 29.62 26.1624 29.6 26.1524C29.46 26.0624 29.27 26.1024 29.17 26.2424C28.69 26.9224 28.34 27.6724 28.12 28.4724L28.11 28.4924C28.07 28.6824 28.13 28.8724 28.27 29.0024L48.28 49.3724L27.63 29.6424C27.49 29.5124 27.3 29.4524 27.11 29.4824H27.09C26.28 29.7024 25.52 30.0524 24.83 30.5224C24.81 30.5324 24.79 30.5424 24.78 30.5624C24.66 30.6824 24.66 30.8724 24.78 30.9824L50.01 54.2724C50.14 54.4024 50.32 54.4724 50.5 54.4724L53.6 54.9824C53.66 54.9824 53.72 54.9624 53.76 54.9124C53.79 54.8824 53.81 54.8524 53.82 54.8124C53.91 54.7824 53.98 54.6924 53.98 54.6024L53.55 51.6424ZM27.22 28.2824C27.36 27.6224 27.97 25.8024 30.8 22.6724C31.28 22.1724 31.87 21.7924 32.52 21.5424C32.94 21.7124 32.65 22.7924 33.23 22.2224C33.24 22.2124 33.26 22.1924 33.27 22.1824C33.83 21.5724 33.79 20.6324 33.18 20.0724L33.17 20.0624C32.56 19.5124 31.63 19.5324 31.04 20.1124L30.12 21.0224L26.44 24.6524C26.1 24.9824 25.56 25.0024 25.2 24.6924L19.58 19.9424C19.35 19.4724 19.29 18.9324 19.41 18.4224C19.4 18.2024 19.22 18.0224 19 18.0224L17.02 18.1524C16.8 18.1424 16.63 18.3124 16.62 18.5324C16.62 18.5324 16.62 18.5324 16.62 18.5424L16.49 20.5024C16.49 20.7224 16.67 20.9024 16.89 20.9024C17.4 20.7624 17.95 20.8224 18.42 21.0624L23.25 26.6124C23.56 26.9624 23.55 27.5024 23.21 27.8324L19.53 31.4624L18.61 32.3724C18.03 32.9424 18.01 33.8824 18.57 34.4724C18.58 34.4924 18.59 34.5024 18.61 34.5124C19.2 35.1024 20.15 35.1124 20.75 34.5324C21.33 33.9624 20.23 34.2424 20.06 33.8324C20.32 33.1924 20.71 32.6224 21.21 32.1424C24.39 29.3524 26.23 28.7424 26.9 28.6124C27.07 28.5724 27.19 28.4524 27.22 28.2824ZM58.38 18.5224C58.38 18.3024 58.2 18.1324 57.99 18.1324C57.99 18.1324 57.99 18.1324 57.98 18.1324L56 17.9924C55.78 17.9924 55.6 18.1724 55.6 18.3924C55.71 18.9024 55.65 19.4424 55.42 19.9124L49.81 24.6624C49.45 24.9724 48.91 24.9524 48.56 24.6224L44.89 20.9924L43.97 20.0824C43.38 19.5024 42.45 19.4824 41.84 20.0324C41.23 20.5824 41.18 21.5224 41.73 22.1324L41.74 22.1424C41.76 22.1524 41.77 22.1624 41.78 22.1824C42.36 22.7524 42.07 21.6724 42.49 21.5024C43.14 21.7524 43.72 22.1324 44.2 22.6324C47.03 25.7624 47.65 27.5824 47.79 28.2324C47.82 28.3924 47.95 28.5224 48.11 28.5524C48.77 28.6824 50.62 29.2924 53.79 32.0824C54.29 32.5524 54.68 33.1324 54.94 33.7724C54.77 34.1924 53.67 33.9024 54.25 34.4724C54.85 35.0524 55.8 35.0424 56.39 34.4524C56.41 34.4424 56.42 34.4224 56.44 34.4124C56.99 33.8124 56.97 32.8824 56.39 32.3124L55.47 31.4024V31.4124L51.79 27.7824C51.46 27.4524 51.44 26.9124 51.75 26.5624L56.58 21.0124C57.05 20.7724 57.6 20.7224 58.11 20.8524C58.33 20.8524 58.51 20.6724 58.51 20.4524L58.38 18.5224ZM50.18 30.4924C49.49 30.0124 48.72 29.6624 47.91 29.4524H47.89C47.7 29.4124 47.51 29.4724 47.38 29.6124L40.42 36.2624L42.31 38.2824L50.23 30.9724C50.35 30.8524 50.35 30.6624 50.23 30.5524C50.22 30.5224 50.2 30.5124 50.18 30.4924ZM46.9 28.4624L46.89 28.4424C46.67 27.6424 46.31 26.8824 45.83 26.2124C45.74 26.0724 45.56 26.0324 45.42 26.1224C45.42 26.1224 45.42 26.1224 45.41 26.1224C45.39 26.1324 45.38 26.1524 45.36 26.1624L38.12 33.7924L40.01 35.8124L46.74 28.9624C46.87 28.8424 46.93 28.6524 46.9 28.4624ZM34.89 41.5424L26.74 49.3324L34.63 41.3024L32.68 39.5324L21.68 51.1324C21.55 51.2624 21.48 51.4324 21.48 51.6124L21.04 54.5824C21.04 54.6824 21.11 54.7724 21.21 54.7924C21.22 54.8324 21.23 54.8624 21.26 54.8924C21.3 54.9324 21.36 54.9524 21.42 54.9624L24.52 54.4524C24.7 54.4524 24.88 54.3824 25.01 54.2524L36.85 43.3224L34.89 41.5424Z" fill="white"/>
<defs fill="#000000">
<linearGradient id="paint0_linear_1639_1339" x1="36.5" y1="0" x2="36.5" y2="71.9975" gradientUnits="userSpaceOnUse" fill="#000000">
<stop stop-color="#6a5231" fill="#000000"/>
<stop offset="1" stop-color="#deca9b" fill="#000000"/>
</linearGradient>
<linearGradient id="paint1_linear_1639_1339" x1="36.5" y1="4.99243" x2="36.5" y2="66.9924" gradientUnits="userSpaceOnUse" fill="#000000">
<stop stop-color="#6a5231" fill="#000000"/>
<stop offset="1" stop-color="#deca9b" fill="#000000"/>
</linearGradient>
</defs>
</svg>