<?xml version="1.0" encoding="utf-8"?>
<!-- Generator: Adobe Illustrator 23.1.0, SVG Export Plug-In . SVG Version: 6.00 Build 0)  -->
<svg version="1.1" id="Слой_1" xmlns="http://www.w3.org/2000/svg" xmlns:xlink="http://www.w3.org/1999/xlink" x="0px" y="0px"
	 viewBox="0 0 19 23" style="enable-background:new 0 0 19 23;" xml:space="preserve">
<style type="text/css">
	.st0{fill:#CE9969;}
	.st1{fill:#B5855D;}
	.st2{fill:#BA7739;}
	.st3{fill:#BA7739;stroke:#EDE6AB;stroke-width:1.8393;}
	.st4{fill:#FFFFFF;}
</style>
<path class="st0" d="M1.8,9h14.8v12.3c0,1-1,1.7-1.9,1.4l-5.5-1.9l-5.5,1.9c-1,0.3-1.9-0.4-1.9-1.4V9z"/>
<path class="st1" d="M16.6,14.7c-2.9,4.1-8.6,5-12.6,2.1c-4.1-2.9-5-8.6-2.1-12.6C4.8,0,10.5-0.9,14.5,2
	C18.6,4.9,19.5,10.6,16.6,14.7z"/>
<path class="st2" d="M4,16.8c4.1,2.9,9.7,2,12.6-2.1L1.9,4.1C-1,8.2-0.1,13.8,4,16.8z"/>
<path class="st3" d="M14.9,9.4c0,3.1-2.5,5.7-5.7,5.7c-3.1,0-5.7-2.5-5.7-5.7c0-3.1,2.5-5.7,5.7-5.7C12.4,3.7,14.9,6.3,14.9,9.4z"/>
<path class="st4" d="M11.4,6.5c-0.3-0.3-0.3-0.7,0-1l1.3-1.3c0.3-0.3,0.7-0.3,1,0L15,5.4c0.3,0.3,0.3,0.7,0,1l-1.3,1.3
	c-0.3,0.3-0.7,0.3-1,0L11.4,6.5z"/>
</svg>
