<?xml version="1.0" encoding="utf-8"?>
<!-- Generator: Adobe Illustrator 23.1.0, SVG Export Plug-In . SVG Version: 6.00 Build 0)  -->
<svg version="1.1" id="Слой_1" xmlns="http://www.w3.org/2000/svg" xmlns:xlink="http://www.w3.org/1999/xlink" x="0px" y="0px"
	 viewBox="0 0 73 72" style="enable-background:new 0 0 73 72;" xml:space="preserve">
<style type="text/css">
	.st0{fill:url(#SVGID_1_);}
	.st1{fill:#FFFFFF;}
</style>
<linearGradient id="SVGID_1_" gradientUnits="userSpaceOnUse" x1="36.5" y1="-589" x2="36.5" y2="-651" gradientTransform="matrix(1 0 0 -1 0 -584)">
	<stop  offset="0" style="stop-color:#6A5231"/>
	<stop  offset="1" style="stop-color:#DECA9B"/>
</linearGradient>
<path class="st0" d="M36.5,67c17.1,0,31-13.9,31-31S53.6,5,36.5,5s-31,13.9-31,31S19.4,67,36.5,67z"/>
<polygon class="st1" points="21.4,51.7 21.4,47.5 23.5,47.5 27.8,43 30.2,45.4 25.8,49.5 25.8,51.9 "/>
<polygon class="st1" points="24.9,38.8 33.9,47.5 38.2,46.6 33.6,42.1 53.9,24.2 53.9,18.6 48.1,18.6 30.4,38.8 25.9,34.7 "/>
<polygon class="st1" points="40.3,48.2 46.5,54.3 49.5,53.7 46.3,50.5 60.4,38.1 60.4,34.2 56.5,34.2 44.1,48.2 41,45.3 "/>
<polygon class="st1" points="37.3,57.2 37.3,54.1 38.9,54.1 42,50.8 43.8,52.5 40.6,55.6 40.6,57.3 "/>
<polygon class="st1" points="17.6,26.6 23.9,32.6 26.9,32.1 23.7,28.9 37.8,16.5 37.8,12.6 33.8,12.6 21.5,26.6 18.4,23.7 "/>
<polygon class="st1" points="14.7,35.3 14.7,32.2 16.2,32.2 19.4,28.9 21.1,30.7 17.9,33.7 17.9,35.5 "/>
</svg>
