<svg width="73" height="72" viewBox="0 0 73 72" fill="none" xmlns="http://www.w3.org/2000/svg">
<path opacity="0.5" fill-rule="evenodd" clip-rule="evenodd" d="M64.11 12.8925L64.78 7.7125L59.6 8.3925C46.23 -2.7975 26.77 -2.7975 13.4 8.3925L8.22 7.7125L8.89 12.8925C-2.3 26.2725 -2.3 45.7325 8.89 59.1025L8.22 64.2825L13.4 63.6125C26.77 74.7925 46.23 74.7925 59.6 63.6125L64.78 64.2825L64.11 59.1025C75.3 45.7325 75.3 26.2725 64.11 12.8925ZM12.83 12.3225C-0.240003 25.3925 -0.250003 46.5925 12.83 59.6625C25.9 72.7325 47.1 72.7425 60.17 59.6625C73.24 46.5825 73.25 25.3925 60.17 12.3225C47.1 -0.7475 25.91 -0.7475 12.83 12.3225C12.84 12.3225 12.83 12.3225 12.83 12.3225Z" fill="url(#paint0_linear_1639_1342)"/>
<path d="M36.5 66.9924C53.6208 66.9924 67.5 53.1133 67.5 35.9924C67.5 18.8716 53.6208 4.99243 36.5 4.99243C19.3792 4.99243 5.5 18.8716 5.5 35.9924C5.5 53.1133 19.3792 66.9924 36.5 66.9924Z" fill="url(#paint1_linear_1639_1342)"/>
<path fill-rule="evenodd" clip-rule="evenodd" d="M58.47 21.4625C58.16 22.4025 57.75 23.3025 57.26 24.1625C56.49 25.4725 56.25 26.2825 55.51 27.7825C54.86 29.1125 51.74 35.0725 50.86 37.1125C50.78 37.3225 50.7 37.5325 50.6 37.7425C50.59 37.7625 50.57 37.7925 50.56 37.8125C50.18 38.5525 48.51 38.6925 47.38 39.5425C46.85 39.9325 46.93 41.5625 46.55 42.1025C46.33 42.6725 46.05 43.2325 45.72 43.7425C45.66 43.8325 45.6 43.9125 45.54 43.9925L45.55 43.9425C44.6 45.0125 43.58 46.0125 42.5 46.9425C42.38 47.0425 42.29 47.1725 42.23 47.3125C40.54 48.7825 37.2 51.5925 36.23 51.5925C35.28 51.5925 32.29 48.8825 30.71 47.3925C30.64 47.2225 30.54 47.0625 30.4 46.9325C28.87 45.4825 27.51 43.8525 26.36 42.0825C25.97 41.5425 25.89 39.9125 25.36 39.5225C23.68 38.2625 22.19 37.6625 21.96 36.8225C20.97 34.5725 18.06 29.0425 17.43 27.7625C16.69 26.2625 16.45 25.4525 15.68 24.1425C15.19 23.2825 14.78 22.3825 14.47 21.4425C14.82 21.8025 15.2 22.1425 15.6 22.4525H15.59L15.62 22.4825C16.3 23.0225 17.01 23.5125 17.75 23.9625C19.92 25.6325 21.93 27.4925 23.74 29.5425L24.64 31.1025L24.89 32.2625C24.63 29.6725 24.77 27.0625 25.29 24.5125C25.35 23.6725 25.42 22.8825 25.45 22.8125C25.44 22.4625 25.5 22.1225 25.63 21.7925C25.76 21.6525 25.89 21.5125 26.03 21.3825C26.15 21.2825 26.25 21.1625 26.35 21.0325C26.55 20.7725 26.71 20.4925 26.84 20.1925C26.98 19.8925 27.09 19.5825 27.17 19.2625L27.21 19.1325L27.3 19.0625C28.03 18.5325 28.77 18.0225 29.51 17.5225L30.27 15.0525L30.73 16.7425C30.98 16.5925 31.23 16.4425 31.49 16.3125C31.62 16.1925 31.76 16.0725 31.89 15.9625C32.65 15.2425 33.37 14.4825 34.04 13.6925L34.69 11.7625L35.07 11.8525L34.47 15.9125L36.54 14.6925L38.03 13.7625C38.22 13.5025 38.45 13.2025 38.74 12.8025C39.46 11.9125 40.1 10.9625 40.66 9.97253L40.78 10.0025L40.98 10.0125V10.0225C40.98 10.0625 40.62 14.2425 40.74 15.1025C40.77 15.3625 40.76 15.6325 40.72 15.8925L44 15.6925L42.33 16.7425C42.41 16.7725 42.49 16.8025 42.56 16.8325C43.18 17.1225 43.75 17.4225 44.35 17.7325C44.95 18.0425 45.16 18.3525 45.74 18.6925L46.18 19.3325C46.35 19.5825 46.48 19.8425 46.59 20.1225C46.82 20.5725 47.03 21.0325 47.21 21.5025C46.86 21.3725 46.55 21.1625 46.28 20.9025C47.64 23.3425 48.45 26.9725 48.01 32.3725C48.01 32.3625 48.02 32.3625 48.03 32.3625L48.3 31.0925C48.6 30.5725 48.9 30.0525 49.2 29.5325C51.01 27.4925 53.02 25.6225 55.18 23.9525C55.92 23.5025 56.63 23.0025 57.31 22.4725L57.35 22.4425H57.34C57.74 22.1725 58.12 21.8325 58.47 21.4625ZM40.21 34.6025L41.88 34.8525L43.19 34.5525L46.05 31.6525V31.0625L40.36 32.2325L38.96 34.8525L38.86 35.2825L40.21 34.6025ZM27.27 31.6625L30.13 34.5625L31.45 34.8625L33.11 34.6125L34.46 35.2925L34.36 34.8625L32.97 32.2425L27.27 31.0725V31.6625ZM30.74 52.3025V49.8325C30.74 49.5525 30.77 49.2425 30.8 48.9425L36.23 53.5725L42.1 48.8925C42.13 49.2225 42.16 49.5425 42.16 49.8425V52.3125C42.1 53.3725 42.53 54.3925 43.34 55.0825C44.91 56.3125 48.67 57.1025 51.48 58.2125C51.48 58.2125 44.71 63.0025 36.55 63.0025C28.39 63.0025 21.42 58.2025 21.42 58.2025C24.33 56.9125 28 56.3125 29.56 55.0725C30.37 54.3825 30.81 53.3625 30.74 52.3025Z" fill="white"/>
<defs>
<linearGradient id="paint0_linear_1639_1342" x1="36.5" y1="0" x2="36.5" y2="71.9975" gradientUnits="userSpaceOnUse">
<stop stop-color="#64762B"/>
<stop offset="1" stop-color="#9DB954"/>
</linearGradient>
<linearGradient id="paint1_linear_1639_1342" x1="36.5" y1="4.99243" x2="36.5" y2="66.9924" gradientUnits="userSpaceOnUse">
<stop stop-color="#64762B"/>
<stop offset="1" stop-color="#9DB954"/>
</linearGradient>
</defs>
</svg>
