<?xml version="1.0" encoding="utf-8"?>
<!-- Generator: Adobe Illustrator 23.1.0, SVG Export Plug-In . SVG Version: 6.00 Build 0)  -->
<svg version="1.1" id="Слой_1" xmlns="http://www.w3.org/2000/svg" xmlns:xlink="http://www.w3.org/1999/xlink" x="0px" y="0px"
	 viewBox="0 0 73 72" style="enable-background:new 0 0 73 72;" xml:space="preserve">
<style type="text/css">
	.st0{opacity:0.5;fill-rule:evenodd;clip-rule:evenodd;fill:url(#SVGID_1_);enable-background:new    ;}
	.st1{fill:url(#SVGID_2_);}
	.st2{fill:#FCFBFA;stroke:#A8926A;stroke-width:0.25;stroke-miterlimit:10;}
	.st3{fill:#A8926A;}
	.st4{fill:#FCFCFC;}
	.st5{fill:#FFFFFF;}
</style>
<linearGradient id="SVGID_1_" gradientUnits="userSpaceOnUse" x1="36.5" y1="658" x2="36.5" y2="730" gradientTransform="matrix(1 0 0 1 0 -658)">
	<stop  offset="0" style="stop-color:#6A5231"/>
	<stop  offset="1" style="stop-color:#DECA9B"/>
</linearGradient>
<path class="st0" d="M64.1,12.9l0.7-5.2l-5.2,0.7C46.2-2.8,26.8-2.8,13.4,8.4L8.2,7.7l0.7,5.2c-11.2,13.4-11.2,32.8,0,46.2l-0.7,5.2
	l5.2-0.7c13.4,11.2,32.8,11.2,46.2,0l5.2,0.7l-0.7-5.2C75.3,45.7,75.3,26.3,64.1,12.9z M12.8,12.3c-13.1,13.1-13.1,34.3,0,47.3
	c13.1,13.1,34.3,13.1,47.3,0s13.1-34.3,0-47.3C47.1-0.7,25.9-0.7,12.8,12.3L12.8,12.3z"/>
<linearGradient id="SVGID_2_" gradientUnits="userSpaceOnUse" x1="36.5" y1="663" x2="36.5" y2="725" gradientTransform="matrix(1 0 0 1 0 -658)">
	<stop  offset="0" style="stop-color:#6A5231"/>
	<stop  offset="1" style="stop-color:#DECA9B"/>
</linearGradient>
<path class="st1" d="M36.5,67c17.1,0,31-13.9,31-31S53.6,5,36.5,5s-31,13.9-31,31S19.4,67,36.5,67z"/>
<path class="st2" d="M24.6,22.4c0,0-1.2,0-1.5-1.4c-0.3-1.4-0.2-2.6,3.3-3.2c3.5-0.6,21.2-0.7,23.1,0.3c1.8,1,1.9,0.6,2,2.2
	s-0.5,1.6-1.5,2.1c0,0,0.5,8-5,11.7c0,0-4.4,3.6-4,4.1c0,0,0.1,1.3,2.5,2.8c0,0,2.8,1.9,4.7,4.8c1.9,2.9,1.7,8.1,1.7,8.1
	s2,0.4,1.5,2.1c0,0,0.8,1.3-1.8,2.2c0,0-14.3,1.9-24,0c0,0-2.7-0.2-2.5-1.9s0.2-1.7,0.2-1.7l1.6-0.9c0,0,0.1-6.3,2.1-8.5
	c0,0,1.7-2.2,5.2-5.1c0,0,2.1-1.4,1.4-2.5c0,0-0.9-1.1-3.7-3.3c0,0-3.8-2.5-4.7-7.3L24.6,22.4z"/>
<path class="st3" d="M27.6,24.6c0,0,11,1.2,19.1,0c0,0,0.3,5.6-3.3,8.2l-3.9,3.6c0,0-1.4,1.6,0.2,3.2c1.5,1.6,1.8,1.2,4.7,4.4
	c2.9,3.1,2.3,7.4,2.3,7.4l-0.6-0.3c0,0,0.8,1.7-4.2,2.1C37,53.6,30.5,53,29.7,52.9s-1.4-0.9-1.3-1.7l-0.7,0.2c0,0,0.2-4.5,1-5.3
	c0,0,0.9-2,3-3.7c2.1-1.7,3.3-3,3.3-3s1.2-1.3-0.2-3c0,0-4.8-4-5.4-5.4C29.3,30.8,27.8,29.6,27.6,24.6z"/>
<path class="st4" d="M32.4,29.9c0,0,4.7,1.1,9.6,0c0,0,1.5,0.1,0.6,1.3c0,0-1.7,2.6-5,4.6c0,0-0.2,0.7-1.9-0.7c0,0-4.2-3-4.3-4.2
	C31.5,30.9,31.2,30,32.4,29.9z"/>
<path class="st5" d="M43.3,51.4c0,0-5.9-1.4-12.2,0c0,0-2-0.1-0.8-1.7c0,0,2.1-3.3,6.3-5.8c0,0,0.2-0.9,2.4,0.9c0,0,5.3,3.8,5.4,5.3
	C44.4,50.2,44.9,51.3,43.3,51.4z"/>
<path class="st3" d="M26.7,20.3c0,0,2.5,1,14.3,1.1c0,0,1.1,0.1,0.2,1.2c0,0-12.5,0.1-14.7-1.1C26.4,21.4,25.8,20.6,26.7,20.3z"/>
<path class="st3" d="M36.3,45.7c0,0-1,0.5-4.5,4.1c0,0-0.4,0.3-0.4-0.3c0,0,3.6-3.8,4.7-4.2C36,45.3,36.5,45.4,36.3,45.7z"/>
<path class="st3" d="M33.2,31.3c0,0,0.4,0.7,2.8,2.9c0,0,0.2,0.2-0.2,0.3c0,0-2.7-2.3-2.9-3C32.9,31.5,33,31.2,33.2,31.3z"/>
</svg>
